<?xml version="1.0" standalone="no"?>
<!DOCTYPE svg PUBLIC "-//W3C//DTD SVG 1.1//EN" "http://www.w3.org/Graphics/SVG/1.1/DTD/svg11.dtd">
<svg xmlns="http://www.w3.org/2000/svg">
<metadata>Generated by Fontastic.me</metadata>
<defs>
<font id="skye-icons" horiz-adv-x="512">
<font-face font-family="skye-icons" units-per-em="512" ascent="480" descent="-32"/>
<missing-glyph horiz-adv-x="512" />

<glyph glyph-name="grid-view" unicode="&#97;" d="M23 28l91 0 0 91-91 0z m114 114l0-136-137 0 0 136z m-114 68l91 0 0 91-91 0z m114 114l0-136-137 0 0 136z m-114 69l91 0 0 91-91 0z m114 113l0-136-137 0 0 136z m68-478l91 0 0 91-91 0z m114 114l0-136-137 0 0 136z m-114 68l91 0 0 91-91 0z m114 114l0-136-137 0 0 136z m-114 69l91 0 0 91-91 0z m114 113l0-136-137 0 0 136z m68-478l91 0 0 91-91 0z m114 114l0-136-137 0 0 136z m-114 68l91 0 0 91-91 0z m114 114l0-136-137 0 0 136z m-114 69l91 0 0 91-91 0z m114 113l0-136-137 0 0 136z"/>
<glyph glyph-name="grid-view-select" unicode="&#98;" d="M23 28l91 0 0 91-91 0z m114 114l0-136-137 0 0 136z m-114 68l91 0 0 91-91 0z m114 114l0-136-137 0 0 136z m-114 69l91 0 0 91-91 0z m114 113l0-136-137 0 0 136z m68-478l91 0 0 91-91 0z m114 114l0-136-137 0 0 136z m-114 68l91 0 0 91-91 0z m114 114l0-136-137 0 0 136z m-114 69l91 0 0 91-91 0z m114 113l0-136-137 0 0 136z m68-478l91 0 0 91-91 0z m114 114l0-136-137 0 0 136z m-114 68l91 0 0 91-91 0z m114 114l0-136-137 0 0 136z m-114 69l91 0 0 91-91 0z m114 113l0-136-137 0 0 136z m-501 0l137 0 0-136-137 0z m182 0l137 0 0-136-137 0z m182 0l137 0 0-136-137 0z m-364-182l137 0 0-136-137 0z m182 0l137 0 0-136-137 0z m182 0l137 0 0-136-137 0z m-364-182l137 0 0-136-137 0z m182 0l137 0 0-136-137 0z m182 0l137 0 0-136-137 0z"/>
<glyph glyph-name="list-view" unicode="&#99;" d="M41 23l93 0 0 93-93 0z m116 117l0-140-139 0 0 140z m-116 69l93 0 0 94-93 0z m116 117l0-140-139 0 0 140z m-116 70l93 0 0 93-93 0z m116 116l0-140-139 0 0 140z m59-442l0 23 277 0 0-23z m0 186l0 23 277 0 0-23z m0 186l0 23 277 0 0-23z"/>
<glyph glyph-name="list-view-selected" unicode="&#100;" d="M41 23l93 0 0 93-93 0z m116 117l0-140-139 0 0 140z m-116 69l93 0 0 94-93 0z m116 117l0-140-139 0 0 140z m-116 70l93 0 0 93-93 0z m116 116l0-140-139 0 0 140z m59-442l0 23 277 0 0-23z m0 186l0 23 277 0 0-23z m0 186l0 23 277 0 0-23z m-199 70l140 0 0-140-140 0z m0-186l140 0 0-140-140 0z m0-186l140 0 0-140-140 0z"/>
<glyph glyph-name="angle-down" unicode="&#101;" d="M399 302c0-3-1-5-3-7l-133-133c-2-2-5-3-7-3-2 0-5 1-7 3l-133 133c-2 2-3 4-3 7 0 2 1 4 3 6l15 15c1 1 4 2 6 2 3 0 5-1 7-2l112-113 112 113c2 1 4 2 7 2 2 0 5-1 6-2l15-15c2-2 3-4 3-6z"/>
<glyph glyph-name="angle-left" unicode="&#102;" d="M344 357c0-3-1-5-3-7l-112-112 112-113c2-1 3-4 3-6 0-3-1-5-3-7l-14-14c-2-2-5-3-7-3-2 0-5 1-7 3l-133 133c-2 2-3 4-3 7 0 2 1 4 3 6l133 133c2 2 5 3 7 3 2 0 5-1 7-3l14-14c2-2 3-4 3-6z"/>
<glyph glyph-name="angle-right" unicode="&#103;" d="M335 238c0-3-1-5-3-7l-133-133c-2-2-5-3-7-3-2 0-5 1-7 3l-14 14c-2 2-3 4-3 7 0 2 1 5 3 6l112 113-112 112c-2 2-3 4-3 7 0 2 1 4 3 6l14 14c2 2 5 3 7 3 2 0 5-1 7-3l133-133c2-2 3-4 3-6z"/>
<glyph glyph-name="angle-up" unicode="&#104;" d="M399 174c0-3-1-5-3-7l-15-14c-1-2-4-3-6-3-3 0-5 1-7 3l-112 112-112-112c-2-2-4-3-7-3-2 0-5 1-6 3l-15 14c-2 2-3 4-3 7 0 2 1 4 3 6l133 133c2 2 5 3 7 3 2 0 5-1 7-3l133-133c2-2 3-4 3-6z"/>
<glyph glyph-name="check" unicode="&#105;" d="M477 350c0-7-2-14-8-19l-206-207-39-39c-6-5-12-8-20-8-7 0-14 3-19 8l-142 142c-6 6-8 12-8 20 0 7 2 14 8 19l38 39c6 5 12 8 20 8 7 0 14-3 19-8l84-84 188 188c5 5 12 8 19 8 8 0 14-3 20-8l38-39c6-6 8-12 8-20z"/>
<glyph glyph-name="search" unicode="&#106;" d="M450 117c10-12 11-22 3-32 0 0-24-24-24-24-12-10-24-10-35 0 0 0-97 98-97 98-25-15-52-22-80-22-44 0-82 16-114 49-33 32-49 70-49 114 0 44 16 81 46 112 31 31 68 47 112 47 44 0 82-16 115-49 32-32 49-70 49-114 0-30-8-58-24-83 0 0 98-96 98-96m-348 183c0-30 12-57 35-80 23-23 50-35 80-35 30 0 56 11 77 33 22 21 33 47 33 78 0 30-12 56-35 79-23 23-50 35-80 35-30 0-56-11-77-33-22-21-33-47-33-77"/>
<glyph glyph-name="cancel" unicode="&#107;" d="M367 176c6-6 9-13 9-22 0-8-3-16-9-22-6-5-13-8-22-8-8 0-16 3-22 8 0 0-68 78-68 78 0 0-67-78-67-78-6-5-14-8-22-8-9 0-16 3-22 8-6 6-8 14-8 22 0 9 2 16 8 22 0 0 71 80 71 80 0 0-71 81-71 81-6 6-8 13-8 22 0 8 2 16 8 22 6 5 13 8 22 8 8 0 16-3 22-8 0 0 67-78 67-78 0 0 68 78 68 78 6 5 14 8 22 8 9 0 16-3 22-8 6-6 9-14 9-22 0-9-3-16-9-22 0 0-71-81-71-81 0 0 71-80 71-80"/>
<glyph glyph-name="close" unicode="&#108;" d="M35 472l20 19 422-451-20-19z m437 5l19-20-451-422-19 20z"/>
<glyph glyph-name="icon-arrow-up" unicode="&#109;" d="M257 493c-13 0-25-12-25-12l-125-129c-12-13-12-33 0-45 12-13 31-13 43 0l77 80 0-336c0-17 13-32 30-32 17 0 30 15 30 32l0 334 75-78c12-13 31-13 43 0 12 12 12 32 0 45l-121 128c0 0-14 13-27 13z"/>
<glyph glyph-name="play" unicode="&#110;" d="M80 512l336-248-336-248z"/>
<glyph glyph-name="file-text-o" unicode="&#111;" d="M456 403c5-5 10-12 14-21 4-9 5-18 5-25l0-330c0-7-2-14-8-19-5-5-11-8-19-8l-384 0c-8 0-14 3-19 8-6 5-8 12-8 19l0 458c0 7 2 14 8 19 5 5 11 8 19 8l256 0c8 0 16-2 25-6 9-4 17-8 22-13z m-127 70l0-107 108 0c-2 5-4 9-7 11l-89 90c-2 2-6 4-12 6z m110-436l0 292-119 0c-8 0-14 3-19 8-6 5-8 12-8 20l0 118-220 0 0-438z m-293 246c0 3 1 5 3 7 2 2 4 3 6 3l202 0c2 0 4-1 6-3 2-2 3-4 3-7l0-18c0-3-1-5-3-6-2-2-4-3-6-3l-202 0c-2 0-4 1-6 3-2 1-3 3-3 6z m211-64c2 0 4 0 6-2 2-2 3-4 3-7l0-18c0-3-1-5-3-7-2-1-4-2-6-2l-202 0c-2 0-4 1-6 2-2 2-3 4-3 7l0 18c0 3 1 5 3 7 2 2 4 2 6 2z m0-73c2 0 4-1 6-2 2-2 3-4 3-7l0-18c0-3-1-5-3-7-2-1-4-2-6-2l-202 0c-2 0-4 1-6 2-2 2-3 4-3 7l0 18c0 3 1 5 3 7 2 1 4 2 6 2z"/>
<glyph glyph-name="thin-down" unicode="&#112;" d="M247 30l0 482 13 0 0-479 189 183 8-9-197-191 0-4-13 0 0 0-192 195 8 9z"/>
<glyph glyph-name="thin-left" unicode="&#113;" d="M18 265l482 0 0-13-479 0 183-189-9-8-191 197-4 0 0 13 0 0 195 192 9-8z"/>
<glyph glyph-name="thin-right" unicode="&#114;" d="M482 247l-482 0 0 13 479 0-183 189 9 8 191-197 4 0 0-13 0 0-195-192-9 8z"/>
<glyph glyph-name="thin-up" unicode="&#115;" d="M265 494l0-482-13 0 0 479-189-183-8 9 197 191 0 4 13 0 0 0 192-195-8-9z"/>
<glyph glyph-name="tick" unicode="&#116;" d="M446 437c15 15 40 15 55 0 15-15 15-40 0-55l-309-308-168 168c-15 15-15 39 0 54 15 15 39 15 54 0l114-114z"/>
<glyph glyph-name="tick-round" unicode="&#117;" d="M256 5c-139 0-251 112-251 251 0 139 112 251 251 251 139 0 251-112 251-251 0-139-112-251-251-251z m0 17c129 0 234 105 234 234 0 129-105 234-234 234-129 0-234-105-234-234 0-129 105-234 234-234z m86 299c3 3 8 4 12 0 3-3 3-8 0-12l-131-137-71 71c-4 4-4 9 0 12 3 4 8 4 12 0l59-59z"/>
<glyph glyph-name="tick-round-full" unicode="&#118;" d="M251 9c-138 0-251 113-251 252 0 138 113 251 251 251 139 0 252-113 252-251 0-139-113-252-252-252z m82 327l-110-110-50 49c-7 7-17 7-24 0-6-6-6-17 0-24l74-73 134 135c7 6 7 17 0 23-6 7-17 7-24 0z"/>
<glyph glyph-name="document" unicode="&#119;" d="M90 497l0-482 332 0 0 366-102 116z m237 15l110-125 0-387-362 0 0 512z m-3-120l105 0 0-16-120 0 0 128 15 0z m-166-61l0 15 98 0 0-15z m0-60l0 15 211 0 0-15z m0-65l0 15 211 0 0-15z m0-65l0 15 211 0 0-15z m0-66l0 15 211 0 0-15z"/>
</font>
</defs>
</svg>
